<svg width="72" height="72" viewBox="0 0 72 72" fill="none" xmlns="http://www.w3.org/2000/svg">
<g id="_x30_4_Add_user">
<g id="Group">
<path id="Vector" d="M42.2223 37.4602C44.5575 34.658 45.8438 31.1055 45.8438 27.4578V26.1562C45.8438 20.7291 41.4283 16.3125 36 16.3125C30.5717 16.3125 26.1562 20.7291 26.1562 26.1562V27.4578C26.1562 31.1055 27.4425 34.658 29.7777 37.4612C31.3209 39.313 33.5883 40.375 36 40.375C38.4117 40.375 40.6791 39.313 42.2223 37.4602ZM36 38.1875C34.2402 38.1875 32.5842 37.412 31.4587 36.0602C29.4495 33.6495 28.3438 30.5947 28.3438 27.4578V26.1562C28.3438 21.9344 31.7792 18.5 36 18.5C40.2208 18.5 43.6562 21.9344 43.6562 26.1562V27.4578C43.6562 30.5947 42.5505 33.6495 40.5413 36.0602C39.4158 37.412 37.7598 38.1875 36 38.1875Z" fill="black" stroke="black" stroke-width="0.5"/>
<path id="Vector_2" d="M32.7188 43.6562C32.7188 43.0525 32.2298 42.5625 31.625 42.5625H26.1562C20.728 42.5625 16.3125 46.9791 16.3125 52.4062V56.7812C16.3125 57.385 16.8014 57.875 17.4062 57.875C18.0111 57.875 18.5 57.385 18.5 56.7812V52.4062C18.5 48.1844 21.9355 44.75 26.1562 44.75H30.6417C31.1503 47.2427 33.3586 49.125 36 49.125C36.6048 49.125 37.0938 48.635 37.0938 48.0312C37.0938 47.4275 36.6048 46.9375 36 46.9375C34.1909 46.9375 32.7188 45.4653 32.7188 43.6562Z" fill="black" stroke="black" stroke-width="0.5"/>
<path id="Vector_3" d="M60.0625 49.125C54.0316 49.125 49.125 54.0316 49.125 60.0625C49.125 66.0934 54.0316 71 60.0625 71C66.0934 71 71 66.0934 71 60.0625C71 54.0316 66.0934 49.125 60.0625 49.125ZM60.0625 68.8125C55.238 68.8125 51.3125 64.887 51.3125 60.0625C51.3125 55.238 55.238 51.3125 60.0625 51.3125C64.887 51.3125 68.8125 55.238 68.8125 60.0625C68.8125 64.887 64.887 68.8125 60.0625 68.8125Z" fill="black" stroke="black" stroke-width="0.5"/>
<path id="Vector_4" d="M64.4375 58.9688H61.1562V55.6875C61.1562 55.0838 60.6673 54.5938 60.0625 54.5938C59.4577 54.5938 58.9688 55.0838 58.9688 55.6875V58.9688H55.6875C55.0827 58.9688 54.5938 59.4588 54.5938 60.0625C54.5938 60.6662 55.0827 61.1562 55.6875 61.1562H58.9688V64.4375C58.9688 65.0413 59.4577 65.5312 60.0625 65.5312C60.6673 65.5312 61.1562 65.0413 61.1562 64.4375V61.1562H64.4375C65.0423 61.1562 65.5312 60.6662 65.5312 60.0625C65.5312 59.4588 65.0423 58.9688 64.4375 58.9688Z" fill="black" stroke="black" stroke-width="0.5"/>
<path id="Vector_5" d="M40.375 44.75H45.8437C48.4359 44.75 50.8334 46.0516 52.2553 48.2325C52.4653 48.5541 52.8164 48.7291 53.173 48.7291C53.3786 48.7291 53.5853 48.6711 53.7702 48.5508C54.2755 48.2205 54.4187 47.5434 54.0884 47.037C52.2597 44.2348 49.1786 42.5625 45.8437 42.5625H40.375C39.7702 42.5625 39.2812 43.0525 39.2812 43.6562C39.2812 44.26 39.7702 44.75 40.375 44.75Z" fill="black" stroke="black" stroke-width="0.5"/>
<path id="Vector_6" d="M14.3485 11.3556C20.3401 6.08813 28.028 3.1875 35.9993 3.1875C54.0921 3.1875 68.8118 17.9072 68.8118 36C68.8118 40.025 68.0888 43.9581 66.6626 47.69C66.4471 48.2544 66.7293 48.8866 67.2926 49.102C67.4216 49.1512 67.5529 49.1742 67.683 49.1742C68.1227 49.1742 68.5383 48.9062 68.7046 48.4698C70.2271 44.4886 70.9993 40.293 70.9993 36C70.9993 16.7008 55.2985 1 35.9993 1C27.4965 1 19.2944 4.09422 12.9047 9.71281C12.4508 10.112 12.4071 10.8033 12.8052 11.2561C13.2044 11.7111 13.8968 11.7538 14.3485 11.3556Z" fill="black" stroke="black" stroke-width="0.5"/>
<path id="Vector_7" d="M47.6889 66.6632C43.9559 68.0894 40.0239 68.8124 36 68.8124C17.9072 68.8124 3.1875 54.0927 3.1875 35.9999C3.1875 28.0297 6.08812 20.3407 11.3556 14.3491C11.7537 13.8952 11.71 13.205 11.2561 12.8058C10.8044 12.4077 10.1109 12.4504 9.71281 12.9054C4.09422 19.2961 1 27.4982 1 35.9999C1 55.2991 16.7008 70.9999 36 70.9999C40.2908 70.9999 44.4864 70.2277 48.4687 68.7063C49.0342 68.4908 49.3153 67.8586 49.1009 67.2943C48.8855 66.7299 48.2511 66.4477 47.6889 66.6632Z" fill="black" stroke="black" stroke-width="0.5"/>
</g>
</g>
</svg>
