<svg width="121" height="94" viewBox="0 0 121 94" fill="none" xmlns="http://www.w3.org/2000/svg">
<path d="M115.247 6.03231C115.247 6.08073 108.295 5.53849 99.7319 4.82197C91.1691 4.10544 84.2395 3.4922 84.2395 3.44379C84.2395 3.39537 91.1885 3.94083 99.7545 4.65413C108.321 5.36743 115.25 5.98713 115.247 6.03231Z" fill="#E0E0E0"/>
<path d="M115.163 9.62462C115.163 9.66981 108.214 9.12757 99.6514 8.41427C91.0886 7.70098 84.1589 7.08128 84.1589 7.03609C84.1589 6.99091 91.1079 7.52991 99.6707 8.24644C108.234 8.96296 115.166 9.58266 115.163 9.62462Z" fill="#E0E0E0"/>
<path d="M0.63229 0.248413C0.63229 0.458206 0.603242 0.661544 0.590332 0.848745L3.39511 1.05854C3.39511 0.864881 3.4177 0.655087 3.43061 0.413018L0.63229 0.248413Z" fill="#F5F5F5"/>
<path d="M3.90798 0.46149L3.53035 0.435669C3.51098 0.6616 3.49807 0.871393 3.48193 1.08119L6.56428 1.31357C6.56428 1.10701 6.58687 0.884303 6.59978 0.651917L3.90798 0.46149Z" fill="#F5F5F5"/>
<path d="M0.63233 0.248413H0.532275C0.532275 0.458206 0.509683 0.661544 0.5 0.848745H0.590372C0.603282 0.661544 0.619419 0.458206 0.63233 0.248413Z" fill="#E0E0E0"/>
<path d="M6.70324 0.642212H6.59996C6.59996 0.874598 6.57414 1.0973 6.56445 1.30387H6.6516C6.66773 1.0973 6.6871 0.868143 6.70324 0.642212Z" fill="#E0E0E0"/>
<path d="M3.53058 0.435669H3.43052C3.43052 0.6616 3.40793 0.871393 3.39502 1.08119H3.48216C3.4983 0.868166 3.51121 0.6616 3.53058 0.435669Z" fill="#E0E0E0"/>
<path d="M119.653 33.938C119.653 33.938 118.107 32.6631 115.657 36.4297C114.372 38.3449 113.216 40.344 112.197 42.4136C112.197 42.4136 111.574 43.1915 111.058 42.5847C110.541 41.9779 109.922 40.3512 108.918 40.5255C107.914 40.6998 107.427 41.8004 107.443 43.4755C107.459 45.1506 107.369 48.8301 107.359 49.1593C107.349 49.4885 107.114 49.9436 106.694 49.5886C106.274 49.2335 103.993 46.0769 102.563 47.2518C101.133 48.4266 101.946 53.0873 102.027 53.5972C102.108 54.1072 101.988 54.3105 101.736 54.4106C101.485 54.5106 100.82 53.3745 100.123 52.5063C99.4255 51.6381 98.4863 50.744 97.7181 51.4928C96.95 52.2416 96.3722 55.6112 99.0092 61.4693L100.416 64.0998L103.408 64.2483C109.838 64.1772 112.652 62.2278 113.004 61.2176C113.356 60.2073 112.149 59.7199 111.067 59.465C109.986 59.21 108.679 59.0841 108.663 58.8194C108.647 58.5548 108.779 58.3579 109.276 58.2159C109.773 58.0739 114.347 56.8409 114.805 55.0496C115.263 53.2583 111.439 52.516 110.932 52.29C110.425 52.0641 110.748 51.6445 111.042 51.509C111.335 51.3734 114.627 49.7209 116.154 49.0269C117.681 48.333 118.481 47.4648 118.207 46.4449C117.933 45.425 116.203 45.5863 115.434 45.3765C114.666 45.1668 115.112 44.2695 115.112 44.2695C116.556 42.4724 117.879 40.5811 119.072 38.6083C121.454 34.7965 119.591 33.9186 119.591 33.9186" fill="#EBEBEB"/>
<path d="M99.916 64.5839C101.675 61.792 104.883 56.8829 107.617 52.6418C110.351 48.4008 112.82 44.5728 114.592 41.8003L116.687 38.5017L117.258 37.6045L117.41 37.3721C117.425 37.3462 117.442 37.3214 117.461 37.2979L117.416 37.3785L117.274 37.6142L116.719 38.5211C116.235 39.3054 115.528 40.4383 114.647 41.8358C112.875 44.6406 110.428 48.475 107.711 52.7031C104.993 56.9313 101.743 61.8372 99.9644 64.6194" fill="#E0E0E0"/>
<path d="M109.702 42.8268C109.728 42.8944 109.747 42.9648 109.757 43.0366C109.786 43.1721 109.822 43.3593 109.863 43.6143C109.951 44.1017 110.047 44.7795 110.144 45.5315C110.241 46.2835 110.322 46.942 110.383 47.4519C110.415 47.6843 110.438 47.878 110.461 48.0329C110.476 48.1039 110.482 48.1765 110.48 48.2491C110.454 48.1815 110.435 48.1111 110.425 48.0393C110.396 47.9038 110.361 47.7166 110.319 47.4616C110.238 46.971 110.148 46.2932 110.054 45.5444C109.96 44.7956 109.867 44.134 109.799 43.624C109.77 43.3948 109.741 43.198 109.721 43.043C109.706 42.972 109.7 42.8994 109.702 42.8268Z" fill="#E0E0E0"/>
<path d="M110.748 48.3427C110.748 48.3169 112.132 48.0522 113.85 47.7488C115.567 47.4454 116.964 47.2195 116.967 47.2453C116.971 47.2711 115.583 47.5358 113.866 47.8392C112.149 48.1426 110.751 48.3685 110.748 48.3427Z" fill="#E0E0E0"/>
<path d="M106.258 54.6494C106.331 54.6401 106.405 54.6401 106.478 54.6494L107.075 54.714C107.575 54.7688 108.272 54.8398 109.04 54.8915C109.809 54.9431 110.509 54.9657 111.013 54.9786L111.613 54.9948C111.686 54.9913 111.76 54.9967 111.832 55.0109C111.76 55.0254 111.687 55.0319 111.613 55.0303C111.471 55.0303 111.268 55.0303 111.013 55.0303C110.506 55.0303 109.805 55.0303 109.034 54.9689C108.263 54.9076 107.565 54.8366 107.065 54.7656C106.813 54.7301 106.613 54.6978 106.471 54.672C106.4 54.6719 106.328 54.6643 106.258 54.6494Z" fill="#E0E0E0"/>
<path d="M104.218 49.879C104.257 49.9343 104.29 49.9939 104.315 50.0565L104.554 50.5568C104.751 50.9796 105.019 51.5703 105.306 52.2223C105.593 52.8742 105.851 53.4681 106.032 53.8974L106.245 54.4106C106.275 54.4719 106.297 54.537 106.31 54.6042C106.269 54.5489 106.236 54.4881 106.213 54.4235C106.145 54.2879 106.068 54.1233 105.974 53.9232C105.777 53.5004 105.509 52.913 105.222 52.261C104.935 51.609 104.677 51.0151 104.493 50.5826C104.412 50.3825 104.341 50.2115 104.283 50.0727C104.253 50.0114 104.231 49.9462 104.218 49.879Z" fill="#E0E0E0"/>
<path d="M99.5481 54.9399C99.5947 55.0131 99.6357 55.0897 99.6707 55.1691L99.9935 55.8146C100.248 56.3568 100.597 57.1056 100.962 57.9416C101.326 58.7775 101.678 59.5296 101.93 60.0783C102.043 60.3397 102.137 60.5592 102.208 60.7238C102.244 60.8033 102.276 60.8853 102.301 60.9691C102.253 60.8966 102.21 60.8199 102.175 60.7399L101.869 60.0944C101.614 59.5522 101.265 58.8034 100.9 57.9674C100.536 57.1315 100.184 56.3794 99.9322 55.8308L99.6514 55.1852C99.6083 55.1074 99.5736 55.0252 99.5481 54.9399Z" fill="#E0E0E0"/>
<path d="M102.262 60.8077C102.355 60.7991 102.448 60.7991 102.54 60.8077L103.299 60.8626C103.944 60.9077 104.825 60.9691 105.803 61.0078C106.781 61.0465 107.665 61.0594 108.308 61.0659H109.069C109.162 61.0585 109.255 61.0585 109.347 61.0659C109.255 61.083 109.163 61.0916 109.069 61.0917L108.308 61.1143C107.662 61.1143 106.778 61.1143 105.797 61.082C104.815 61.0498 103.934 60.9755 103.295 60.911C102.973 60.8819 102.718 60.8529 102.537 60.8271C102.445 60.8288 102.353 60.8223 102.262 60.8077Z" fill="#E0E0E0"/>
<path d="M9.17227 7.83008C9.17227 7.83008 5.83172 45.8059 7.03561 67.9729C8.07812 87.1997 9.91462 93.6774 9.91462 93.6774L20.8594 93.6613L9.17227 7.83008Z" fill="#E0E0E0"/>
<path d="M70.9161 1.51361C70.9161 1.51361 70.8128 1.46197 70.616 1.41033C70.3392 1.34445 70.0502 1.35112 69.7768 1.4297C69.3726 1.5622 68.9963 1.76788 68.6665 2.03648C68.276 2.32696 67.8596 2.66264 67.44 3.03381C66.7221 3.67015 66.0542 4.36074 65.4421 5.09946C64.9677 5.66429 64.703 6.03546 64.6804 6.02255C64.721 5.92159 64.7741 5.82616 64.8386 5.73852C64.9515 5.56746 65.1226 5.31894 65.3485 5.02523C65.9393 4.25821 66.6018 3.54924 67.327 2.90793C67.7255 2.55462 68.1424 2.22278 68.5761 1.91384C68.9231 1.639 69.3214 1.43601 69.7477 1.31673C70.0405 1.24175 70.3487 1.25296 70.6353 1.34901C70.7424 1.37681 70.8396 1.4338 70.9161 1.51361Z" fill="white"/>
<path d="M9.4823 6.87473C9.4823 6.87473 8.62376 58.7711 15.7858 93.6775L105.103 93.3999L81.7222 6.45837L9.4823 6.87473Z" fill="#E0E0E0"/>
<path d="M9.48215 6.87464L81.722 6.3905H81.7737L81.7898 6.43891C88.4483 31.1945 96.4882 61.0658 105.183 93.3772L105.212 93.4837H105.103L98.002 93.5063L15.7856 93.7516H15.7243V93.6935C15.4231 92.0883 15.1272 90.5014 14.8367 88.9328C14.6979 88.1453 14.5365 87.3674 14.4139 86.5864C14.2913 85.8053 14.1783 85.0307 14.0589 84.2593C13.8265 82.7122 13.5952 81.1855 13.3649 79.6793C13.1734 78.1731 12.9852 76.6777 12.8001 75.193C12.7076 74.4571 12.6151 73.7244 12.5225 72.995C12.4322 72.2656 12.3644 71.5394 12.2869 70.8196C12.1384 69.3758 11.9911 67.9535 11.8447 66.5527C11.6866 65.152 11.5898 63.7641 11.4671 62.3988C11.3445 61.0336 11.2347 59.6909 11.1218 58.3708C10.302 47.7811 9.9211 38.5179 9.69839 30.8879C9.47569 23.2579 9.44341 17.2513 9.44019 13.1555C9.44019 11.106 9.44019 9.5374 9.46278 8.47875C9.46278 7.94943 9.46924 7.54921 9.48215 7.27809C9.48215 7.02311 9.48215 6.91014 9.48215 6.87464C9.48215 7.02957 9.48215 9.07909 9.48215 13.1555C9.48215 17.232 9.55315 23.2546 9.77908 30.8847C10.005 38.5147 10.4246 47.7746 11.238 58.3611C11.3541 59.6812 11.4703 61.0271 11.5865 62.3891C11.7027 63.7512 11.8092 65.139 11.9674 66.5398C12.1255 67.9406 12.2643 69.364 12.416 70.8035C12.4935 71.5232 12.5613 72.2494 12.6516 72.9789C12.742 73.7083 12.8356 74.441 12.9292 75.1768C13.1164 76.6551 13.3058 78.1495 13.4973 79.66C13.7296 81.1672 13.9588 82.6939 14.1944 84.2367C14.3149 85.007 14.4343 85.7827 14.5527 86.5638C14.6721 87.3448 14.8367 88.1227 14.9755 88.907C15.2681 90.4756 15.564 92.0614 15.8631 93.6645L15.7921 93.6064L98.0084 93.3353L105.109 93.3159L105.028 93.4192C96.3462 61.1078 88.316 31.23 81.6639 6.47765L81.7317 6.52606L9.48215 6.87464Z" fill="#263238"/>
<path d="M9.4824 6.87463C9.4824 6.87463 9.40817 13.7139 10.5669 25.8916C11.3318 33.9605 11.2479 44.5309 13.3846 58.0157C17.9032 86.5057 20.2755 90.8629 20.2755 90.8629L107.388 90.2723L84.2043 5.59973L9.4824 6.87463Z" fill="#EBEBEB"/>
<path d="M9.4822 6.87471L84.2041 5.52881H84.2589V5.58045C90.9271 29.8196 98.8928 58.9196 107.481 90.2723L107.51 90.3788H107.404L102.656 90.4111L20.2753 90.934H20.243L20.2236 90.8953C19.9082 90.1603 19.6408 89.4056 19.4232 88.6359C19.1908 87.8839 18.9874 87.1254 18.7777 86.3766C18.5679 85.6278 18.3903 84.8726 18.2128 84.1173C18.0353 83.3621 17.8642 82.623 17.6964 81.8806C17.0272 78.9177 16.4333 76.0129 15.9148 73.1661C14.8497 67.463 13.9524 62.031 13.1552 56.9185C12.7647 54.3622 12.4548 51.877 12.1869 49.4692C11.919 47.0614 11.7286 44.744 11.5705 42.5105C11.2477 38.0403 11.0702 33.9284 10.8378 30.2199C10.7281 28.364 10.5796 26.6114 10.4247 24.9621C10.2697 23.3128 10.1471 21.7668 10.0406 20.3273C9.82433 17.4451 9.68554 14.9921 9.60162 13.0007C9.51771 11.0092 9.47897 9.4826 9.46606 8.453C9.46606 7.93659 9.46606 7.54605 9.46606 7.28462C9.46606 7.02318 9.46606 6.89085 9.46606 6.89085C9.46606 6.96509 9.46606 7.43954 9.48866 8.44978C9.51125 9.46001 9.55321 11.0093 9.64681 12.9974C9.74041 14.9856 9.88565 17.4418 10.1084 20.3208C10.2181 21.7603 10.3472 23.3096 10.5021 24.9557C10.657 26.6017 10.8087 28.3575 10.9217 30.2134C11.1605 33.9251 11.3445 38.0371 11.6737 42.5008C11.8351 44.7343 12.0428 47.0539 12.2967 49.4595C12.5516 51.8608 12.8647 54.3461 13.2649 56.9023C14.0654 62.0116 14.9659 67.4404 16.0374 73.1403C16.5668 75.9935 17.1617 78.9059 17.8223 81.8774C17.9869 82.6197 18.145 83.3685 18.3387 84.1141C18.5324 84.8597 18.7066 85.6149 18.9035 86.3734C19.1004 87.1319 19.307 87.8775 19.549 88.6327C19.7647 89.3891 20.0288 90.1308 20.3398 90.8533L20.2753 90.8146L102.653 90.2594L107.401 90.2271L107.32 90.3337C98.7379 58.9647 90.7722 29.8584 84.1492 5.61918L84.217 5.67082L9.4822 6.87471Z" fill="#263238"/>
<path d="M92.0858 9.62463L9.55316 11.0286C9.20459 33.4119 17.0864 68.3474 22.8637 86.722L109.479 85.8151C100.61 62.2698 90.4139 35.5002 92.0858 9.62463Z" fill="#F5F5F5"/>
<path d="M92.0859 9.62463C92.0859 9.69887 92.0859 10.1281 92.0439 11.0609C92.0439 11.5354 92.0084 12.126 91.9858 12.8296C91.9632 13.5332 91.9051 14.3498 91.9438 15.2697C91.9858 17.1126 91.9697 19.3881 92.1988 22.0476C92.244 22.7146 92.2903 23.4064 92.3376 24.123C92.4086 24.8362 92.4958 25.5754 92.5797 26.3371C92.6636 27.0988 92.754 27.8831 92.8443 28.69C92.9347 29.4969 93.0832 30.3264 93.2058 31.1752C93.3285 32.0241 93.4673 32.902 93.606 33.796C93.7448 34.6901 93.9449 35.6003 94.1192 36.5363C94.2935 37.4723 94.4614 38.4309 94.6808 39.3991C94.9003 40.3674 95.1198 41.3615 95.3457 42.375C95.4619 42.8817 95.5716 43.3949 95.6975 43.9081L96.0913 45.4638C96.3603 46.5095 96.6324 47.5757 96.9079 48.6623C97.1833 49.7489 97.4931 50.8474 97.8374 51.9577C97.9956 52.516 98.1602 53.0809 98.3183 53.6457L98.838 55.3531C101.598 64.5517 105.364 74.7186 109.547 85.7892L109.583 85.8861H109.479L25.7299 86.7801L22.8573 86.8092H22.7928L22.7766 86.7511C20.6884 80.0215 18.9035 73.3146 17.3382 66.711C15.7728 60.1073 14.3978 53.6005 13.2423 47.2357C12.0869 40.8709 11.1444 34.6481 10.4699 28.5932C9.77591 22.7645 9.44283 16.8984 9.47253 11.0286V10.9576H9.54353L92.0762 9.62463L9.54676 11.1029L9.61777 11.0319C9.59154 16.8954 9.92785 22.755 10.6248 28.577C11.2993 34.6223 12.2386 40.8419 13.4037 47.2067C14.5689 53.5715 15.9245 60.0718 17.4995 66.6722C19.0746 73.2727 20.8498 79.9763 22.9348 86.6994L22.8541 86.6413L25.7299 86.6123L109.479 85.7537L109.412 85.8506C105.235 74.7799 101.478 64.6034 98.725 55.3983C98.5507 54.8238 98.3796 54.2525 98.2054 53.6877C98.0311 53.1228 97.8826 52.5548 97.7277 51.9964L96.8014 48.701C96.5281 47.6123 96.257 46.545 95.988 45.4993C95.8557 44.9764 95.7266 44.4568 95.5942 43.9436C95.4619 43.4304 95.3619 42.914 95.2489 42.4072C95.023 41.3938 94.8002 40.4029 94.584 39.4282C94.3678 38.4534 94.2096 37.4916 94.0256 36.5621C93.8417 35.6325 93.6706 34.7159 93.5189 33.8219L93.1219 31.2075C93.0025 30.3554 92.8508 29.5292 92.7636 28.7223C92.6765 27.9154 92.5894 27.1246 92.5054 26.3629C92.4215 25.6012 92.3376 24.8621 92.2698 24.1488C92.202 23.4355 92.1762 22.7383 92.1343 22.0734C91.9148 19.4042 91.9342 17.1288 91.8987 15.2955C91.8664 14.3724 91.9374 13.5655 91.9535 12.8619C91.9697 12.1583 92.0052 11.5709 92.0245 11.0964C92.0665 10.1346 92.0826 9.69887 92.0859 9.62463Z" fill="#263238"/>
<path d="M92.2376 5.46423L9.48231 6.87469C9.13373 29.2548 12.8035 49.8177 18.5841 68.1988L42.4683 82.9876L111.787 81.8064C102.911 58.2546 90.5658 31.3398 92.2376 5.46423Z" fill="#FAFAFA"/>
<path d="M92.2376 5.46423C92.2376 5.53847 92.2183 5.97419 92.1795 6.91342C92.157 7.39433 92.1279 7.99466 92.1247 8.7015C92.1214 9.40834 92.0924 10.2314 92.1247 11.1609C92.2177 16.534 92.7662 21.8894 93.7643 27.1698C95.0069 34.0058 97.1952 42.1748 100.355 51.3282C101.927 55.9082 103.728 60.7367 105.681 65.8104C107.633 70.8842 109.744 76.1936 111.852 81.7773L111.887 81.8741H111.784L42.4682 83.0683H42.4424H42.423L32.0948 76.6648L18.5583 68.2731L18.5324 68.2569V68.2279C15.2609 57.8373 12.8419 47.1973 11.2994 36.4136C9.91752 26.6312 9.29596 16.7564 9.44034 6.87791V6.80691H9.51134L92.2667 5.47069L9.51457 6.95215L9.58558 6.88114C9.4414 16.7442 10.0586 26.6036 11.4318 36.3716C12.9747 47.1454 15.3926 57.7757 18.6616 68.1569L18.6261 68.1117L32.1625 76.5034L42.4908 82.9102H42.4456L111.761 81.7418L111.697 81.8386C109.592 76.2549 107.485 70.9391 105.539 65.8653C103.592 60.7915 101.791 55.9598 100.223 51.3767C97.0726 42.2168 94.8939 34.0381 93.6642 27.1956C92.6641 21.9106 92.1242 16.5489 92.0504 11.1706C92.0246 10.2411 92.0504 9.41803 92.0666 8.71119C92.0827 8.00434 92.1053 7.42015 92.1311 6.92956C92.2183 5.97742 92.2344 5.53847 92.2376 5.46423Z" fill="#263238"/>
<path d="M18.6519 68.1892L39.6796 65.9299L42.4585 82.9845L18.6519 68.1892Z" fill="#E0E0E0"/>
<path d="M42.4584 82.9844C42.4483 82.9574 42.4418 82.9292 42.4391 82.9005C42.4391 82.8327 42.41 82.752 42.3874 82.6487L42.2132 81.6805C42.0679 80.8187 41.8581 79.5922 41.5999 78.0688C41.0932 74.9961 40.3896 70.7389 39.5956 65.9492L39.6892 66.0202L37.73 66.23L24.1935 67.6598L20.0913 68.0729L18.9745 68.1794L18.684 68.202H18.584C18.6153 68.1915 18.6478 68.185 18.6808 68.1827L18.9713 68.1439L20.0848 68.0084L24.1806 67.5404L37.7139 66.0654L39.6698 65.8556H39.7505V65.933C40.5187 70.726 41.2029 74.9703 41.6871 78.0623C41.9227 79.5857 42.1163 80.8187 42.2487 81.6805C42.3089 82.0979 42.3573 82.4206 42.3939 82.6487L42.4262 82.9037C42.4421 82.9282 42.4531 82.9556 42.4584 82.9844Z" fill="#263238"/>
<path d="M76.7033 28.8061C76.7033 28.8512 65.5519 29.0804 51.7992 29.316C38.0464 29.5516 26.8887 29.7001 26.8887 29.6549C26.8887 29.6097 38.0368 29.3806 51.796 29.1482C65.5552 28.9158 76.7033 28.7609 76.7033 28.8061Z" fill="#263238"/>
<path d="M78.0944 36.5685C78.0944 36.6137 66.9431 36.8429 53.1871 37.0785C39.4311 37.3141 28.2798 37.4626 28.2798 37.4174C28.2798 37.3722 39.4279 37.143 53.1871 36.9074C66.9463 36.6718 78.0911 36.5233 78.0944 36.5685Z" fill="#263238"/>
<path d="M81.2123 44.3017C81.2123 44.3469 70.061 44.5761 56.3082 44.8085C42.5555 45.0408 31.3977 45.1958 31.3977 45.1506C31.3977 45.1054 42.5458 44.8762 56.305 44.6406C70.0642 44.405 81.2123 44.2533 81.2123 44.3017Z" fill="#263238"/>
<path d="M84.4721 53.0679C84.4721 53.1163 73.3207 53.3422 59.568 53.5778C45.8152 53.8135 34.6575 53.9652 34.6575 53.9167C34.6575 53.8683 45.8056 53.6456 59.5648 53.41C73.324 53.1744 84.4721 53.0227 84.4721 53.0679Z" fill="#263238"/>
<path d="M88.1708 61.2241C88.1708 61.2693 77.0195 61.4984 63.2667 61.7308C49.514 61.9632 38.3562 62.1181 38.3562 62.0729C38.3562 62.0278 49.5043 61.7986 63.2635 61.563C77.0227 61.3274 88.1708 61.1757 88.1708 61.2241Z" fill="#263238"/>
<path d="M16.9379 8.90813C16.9121 8.90813 17.0089 8.69511 17.0864 8.35298C17.1925 7.9123 17.198 7.45337 17.1025 7.01027C17.0069 6.56717 16.8128 6.15128 16.5345 5.7935C16.3215 5.51593 16.1536 5.37392 16.1698 5.35132C16.1859 5.32873 16.3796 5.44815 16.6249 5.71927C16.9464 6.07396 17.169 6.50694 17.2704 6.9748C17.3712 7.44262 17.349 7.9286 17.2058 8.38525C17.1608 8.5789 17.0688 8.75848 16.9379 8.90813Z" fill="#EB996E"/>
<path d="M18.9101 5.16406C19.028 5.40349 19.1095 5.65912 19.1522 5.92255C19.4295 7.18259 19.3795 8.49263 19.007 9.72787C18.9456 9.9862 18.8443 10.2334 18.7068 10.4605C18.9418 9.59936 19.0921 8.71725 19.1554 7.82682C19.1602 6.93338 19.078 6.04159 18.9101 5.16406Z" fill="#EB996E"/>
<path d="M21.2822 5.22217C21.5122 6.58113 21.3922 7.97627 20.9336 9.27602C20.8852 9.27602 21.1047 8.37552 21.1983 7.25877C21.2919 6.14203 21.2306 5.22862 21.2822 5.22217Z" fill="#EB996E"/>
<path d="M117.661 86.4411C117.635 86.4185 118.045 85.9764 118.568 85.1695C118.872 84.6942 119.139 84.1968 119.369 83.6815C119.932 82.4198 120.261 81.0656 120.337 79.6858C120.368 79.1262 120.355 78.565 120.298 78.0074C120.205 77.0392 120.037 76.4711 120.072 76.4614C120.127 76.5917 120.169 76.7268 120.198 76.8649C120.246 77.0227 120.284 77.1833 120.311 77.3458C120.347 77.5362 120.395 77.7525 120.418 77.9913C120.49 78.5574 120.515 79.1285 120.492 79.6987C120.459 80.3967 120.363 81.0902 120.205 81.7708C120.036 82.4492 119.807 83.1113 119.52 83.7493C119.281 84.2676 118.999 84.7652 118.678 85.2372C118.546 85.4438 118.404 85.6116 118.287 85.7666C118.187 85.8983 118.079 86.0244 117.965 86.1442C117.874 86.2534 117.772 86.353 117.661 86.4411Z" fill="#263238"/>
<path d="M112.697 88.2808C112.678 88.2615 113.081 87.8935 113.665 87.2351C115.166 85.5154 116.238 83.4648 116.793 81.2512C117.006 80.4055 117.077 79.8665 117.116 79.873C117.114 80.0054 117.099 80.1373 117.071 80.2667C117.032 80.6119 116.974 80.9546 116.896 81.2931C116.396 83.5479 115.308 85.6302 113.743 87.3287C113.508 87.5858 113.259 87.8293 112.997 88.0581C112.908 88.1455 112.807 88.2204 112.697 88.2808Z" fill="#263238"/>
<path d="M99.7911 36.6873C105.824 33.948 108.494 26.8367 105.755 20.8038C103.016 14.7708 95.9044 12.1007 89.8714 14.8399C83.8385 17.5791 81.1683 24.6904 83.9076 30.7234C86.6468 36.7564 93.7581 39.4265 99.7911 36.6873Z" fill="#313DEB"/>
<path d="M94.5387 21.5732C94.586 24.3554 94.6334 27.1375 94.6807 29.9197C94.7001 30.9558 96.3139 30.959 96.2945 29.9197C96.2493 27.1375 96.202 24.3554 96.1525 21.5732C96.1364 20.5371 94.5226 20.5339 94.5387 21.5732Z" fill="white"/>
<path d="M90.9531 26.6308L99.8838 26.4759C100.92 26.4759 100.923 24.8621 99.8838 24.8621L90.9531 25.017C89.917 25.0331 89.9138 26.6469 90.9531 26.6308Z" fill="white"/>
<g opacity="0.3">
<path d="M97.0597 13.9399C94.7807 13.4761 92.4142 13.7252 90.2817 14.6532C90.7381 15.44 91.2642 16.1842 91.8536 16.877C92.3571 17.5032 93.1123 18.168 93.8708 17.8872C94.0654 17.7801 94.2774 17.708 94.497 17.6742C94.8391 17.6742 95.0683 18.0131 95.2587 18.3004C95.7678 19.0648 96.4133 19.7289 97.163 20.2595C97.5664 20.5468 98.1764 20.7695 98.5024 20.3983C98.6429 20.1956 98.708 19.9501 98.6864 19.7044C98.7122 17.8679 97.8892 15.5795 97.0597 13.9399Z" fill="black"/>
</g>
<path d="M94.923 10.2959C95.5887 11.3077 95.9833 12.4735 96.0688 13.6816C96.0204 13.6816 95.872 12.9006 95.5556 11.971C95.2393 11.0415 94.8811 10.3217 94.923 10.2959Z" fill="#EB996E"/>
<path d="M96.3464 8.31422C96.3981 8.29163 96.5788 8.71444 96.6692 9.25022C96.7624 9.57059 96.7952 9.90549 96.766 10.2379C96.6306 9.93577 96.5424 9.61463 96.5046 9.28572C96.4245 8.96694 96.3716 8.64194 96.3464 8.31422Z" fill="#EB996E"/>
<path d="M94.8648 15.9281C94.669 15.6462 94.4901 15.3531 94.329 15.0501C94.0062 14.5015 93.5479 13.7591 93.0154 12.949C92.7507 12.5423 92.4893 12.1615 92.2504 11.8161C92.0541 11.5084 91.81 11.2338 91.5274 11.0027C91.2554 10.8075 90.9325 10.6953 90.5979 10.68C90.686 10.645 90.782 10.635 90.8755 10.6509C91.1345 10.6767 91.3824 10.769 91.5952 10.9188C91.9009 11.145 92.1652 11.4223 92.3763 11.7386C92.6248 12.0808 92.8895 12.4616 93.1574 12.8683C93.6899 13.6784 94.1256 14.4401 94.4323 15.005C94.6089 15.2963 94.7539 15.6058 94.8648 15.9281Z" fill="#EB996E"/>
<path d="M91.1788 11.0511C91.2046 11.0511 91.2304 11.3061 91.3595 11.6967C91.5282 12.2028 91.8046 12.6664 92.1697 13.0555C92.3949 13.2569 92.6003 13.4796 92.7829 13.7204C92.9261 13.9358 93.0046 14.1879 93.0088 14.4466C93.0301 14.6762 92.9958 14.9076 92.9088 15.1211C92.8797 15.1211 92.9249 14.8597 92.8894 14.4563C92.8716 14.2241 92.7913 14.001 92.657 13.8107C92.4714 13.5795 92.2674 13.3636 92.047 13.1652C91.6626 12.761 91.3871 12.2656 91.2466 11.7257C91.1735 11.5088 91.1503 11.2782 91.1788 11.0511Z" fill="#EB996E"/>
<path d="M87.9578 6.47769C87.9093 6.47769 87.9578 5.70952 87.8125 4.77998C87.6673 3.85043 87.4446 3.11454 87.5156 3.10486C87.6 3.24958 87.6651 3.40476 87.7092 3.56641C87.8343 3.95468 87.9251 4.35321 87.9803 4.75739C88.0875 5.3266 88.0798 5.91149 87.9578 6.47769Z" fill="#EB996E"/>
</svg>
