<svg width="71" height="71" viewBox="0 0 71 71" fill="none" xmlns="http://www.w3.org/2000/svg">
<path d="M19.7238 22.5935C19.4076 25.966 19.1858 31.9344 21.1771 34.4749C21.1771 34.4749 20.2397 27.9184 28.6432 19.6924C32.0268 16.3809 32.8089 11.8769 31.6274 8.49884C30.9562 6.58517 29.7304 5.00431 28.6654 3.90048C28.0441 3.2515 28.5212 2.18095 29.4253 2.21978C34.8945 2.46384 43.7584 3.98368 47.5247 13.4356C49.1777 17.5846 49.2997 21.8724 48.5121 26.2322C48.0129 29.0167 46.2379 35.207 50.2871 35.967C53.177 36.5106 54.5748 34.2142 55.2016 32.5612C55.4623 31.8734 56.3665 31.7014 56.8546 32.2506C61.7358 37.803 62.1519 44.3427 61.1423 49.9728C59.1898 60.8558 48.1682 68.7767 37.2187 68.7767C23.5401 68.7767 12.6515 60.9501 9.82818 46.7834C8.69107 41.0645 9.26795 29.7489 18.0875 21.7614C18.742 21.1624 19.8126 21.6949 19.7238 22.5935Z" fill="url(#paint0_radial_4668_25544)"/>
<path d="M42.2176 42.9416C37.1755 36.4517 39.4331 29.0467 40.6701 26.0957C40.8365 25.7074 40.3927 25.3413 40.0433 25.5799C37.8744 27.0553 33.4314 30.5277 31.3624 35.4145C28.5612 42.0208 28.7609 45.2546 30.4194 49.204C31.4179 51.5836 30.2586 52.0884 29.6762 52.1771C29.1104 52.2659 28.589 51.8887 28.173 51.4949C26.9764 50.3457 26.1236 48.8859 25.7101 47.2792C25.6214 46.9353 25.1721 46.841 24.9669 47.1239C23.4137 49.2706 22.6094 52.7152 22.5706 55.1503C22.4486 62.6774 28.6666 68.7789 36.1882 68.7789C45.6678 68.7789 52.5737 58.2953 47.1266 49.5313C45.5458 46.9797 44.0592 45.3101 42.2176 42.9416Z" fill="url(#paint1_radial_4668_25544)"/>
<defs>
<radialGradient id="paint0_radial_4668_25544" cx="0" cy="0" r="1" gradientUnits="userSpaceOnUse" gradientTransform="translate(34.5094 68.9492) rotate(-179.751) scale(39.1541 64.244)">
<stop offset="0.314" stop-color="#FF9800"/>
<stop offset="0.662" stop-color="#FF6D00"/>
<stop offset="0.972" stop-color="#F44336"/>
</radialGradient>
<radialGradient id="paint1_radial_4668_25544" cx="0" cy="0" r="1" gradientUnits="userSpaceOnUse" gradientTransform="translate(36.7096 29.9832) rotate(90.5787) scale(40.9672 30.8309)">
<stop offset="0.214" stop-color="#FFF176"/>
<stop offset="0.328" stop-color="#FFF27D"/>
<stop offset="0.487" stop-color="#FFF48F"/>
<stop offset="0.672" stop-color="#FFF7AD"/>
<stop offset="0.793" stop-color="#FFF9C4"/>
<stop offset="0.822" stop-color="#FFF8BD" stop-opacity="0.804"/>
<stop offset="0.863" stop-color="#FFF6AB" stop-opacity="0.529"/>
<stop offset="0.91" stop-color="#FFF38D" stop-opacity="0.209"/>
<stop offset="0.941" stop-color="#FFF176" stop-opacity="0"/>
</radialGradient>
</defs>
</svg>
