<svg width="30" height="30" viewBox="0 0 30 30" fill="none" xmlns="http://www.w3.org/2000/svg">
<g id="ic:baseline-whatsapp">
<path id="Vector" d="M24.9196 4.07406C23.6294 2.77782 22.0929 1.75002 20.3995 1.05058C18.7061 0.351136 16.8898 -0.00596842 15.0563 7.5453e-05C7.37387 7.5453e-05 1.11256 6.23006 1.11256 13.874C1.11256 16.324 1.7598 18.704 2.96985 20.804L1 28L8.38693 26.068C10.4271 27.174 12.7206 27.762 15.0563 27.762C22.7387 27.762 29 21.532 29 13.888C29 10.178 27.5508 6.69206 24.9196 4.07406ZM15.0563 25.41C12.9739 25.41 10.9337 24.85 9.14673 23.8L8.72462 23.548L4.33467 24.696L5.50251 20.44L5.22111 20.006C4.06389 18.1679 3.44954 16.043 3.44824 13.874C3.44824 7.51806 8.65427 2.33807 15.0422 2.33807C18.1377 2.33807 21.0503 3.54207 23.2312 5.72606C24.3112 6.79547 25.1671 8.06761 25.7492 9.46871C26.3313 10.8698 26.628 12.372 26.6221 13.888C26.6503 20.244 21.4442 25.41 15.0563 25.41ZM21.4161 16.786C21.0643 16.618 19.3477 15.778 19.0382 15.652C18.7146 15.54 18.4894 15.484 18.2502 15.82C18.0111 16.17 17.3497 16.954 17.1528 17.178C16.9558 17.416 16.7447 17.444 16.393 17.262C16.0412 17.094 14.9156 16.716 13.593 15.54C12.5518 14.616 11.8623 13.482 11.6513 13.132C11.4543 12.782 11.6231 12.6 11.806 12.418C11.9608 12.264 12.1578 12.012 12.3266 11.816C12.4955 11.62 12.5658 11.466 12.6784 11.242C12.791 11.004 12.7347 10.808 12.6503 10.64C12.5658 10.472 11.8623 8.76405 11.5809 8.06405C11.2995 7.39206 11.004 7.47606 10.793 7.46206H10.1176C9.87839 7.46206 9.51256 7.54606 9.18894 7.89605C8.8794 8.24605 7.97889 9.08605 7.97889 10.794C7.97889 12.502 9.23116 14.154 9.4 14.378C9.56884 14.616 11.8623 18.116 15.3518 19.614C16.1819 19.978 16.8291 20.188 17.3357 20.342C18.1658 20.608 18.9256 20.566 19.5307 20.482C20.206 20.384 21.599 19.642 21.8804 18.83C22.1759 18.018 22.1759 17.332 22.0774 17.178C21.9789 17.024 21.7678 16.954 21.4161 16.786Z" fill="#545251"/>
</g>
</svg>
